<svg xmlns="http://www.w3.org/2000/svg" style="display: none;">
  <!-- Logo Icon -->
  <symbol id="logo-icon" viewBox="0 0 24 24" fill="none" stroke="currentColor" stroke-width="2">
    <path d="M12 2L2 7l10 5 10-5-10-5z"/>
    <path d="M2 17l10 5 10-5M2 12l10 5 10-5"/>
  </symbol>

  <!-- Step Icons -->
  <symbol id="icon-highlight" viewBox="0 0 24 24" fill="none" stroke="currentColor" stroke-width="2" stroke-linecap="round" stroke-linejoin="round">
    <path d="M21 15a2 2 0 0 1-2 2H7l-4 4V5a2 2 0 0 1 2-2h14a2 2 0 0 1 2 2z"/>
    <path d="M8 9h8M8 13h6"/>
  </symbol>

  <symbol id="icon-click" viewBox="0 0 24 24" fill="none" stroke="currentColor" stroke-width="2" stroke-linecap="round" stroke-linejoin="round">
    <path d="M9 11l3 3L22 4"/>
    <path d="M21 12v7a2 2 0 0 1-2 2H5a2 2 0 0 1-2-2V5a2 2 0 0 1 2-2h11"/>
  </symbol>

  <symbol id="icon-read" viewBox="0 0 24 24" fill="none" stroke="currentColor" stroke-width="2" stroke-linecap="round" stroke-linejoin="round">
    <path d="M4 19.5A2.5 2.5 0 0 1 6.5 17H20"/>
    <path d="M6.5 2H20v20H6.5A2.5 2.5 0 0 1 4 19.5v-15A2.5 2.5 0 0 1 6.5 2z"/>
  </symbol>

  <!-- Feature Icons -->
  <symbol id="icon-inline" viewBox="0 0 24 24" fill="none" stroke="currentColor" stroke-width="2" stroke-linecap="round" stroke-linejoin="round">
    <rect x="3" y="3" width="18" height="18" rx="2" ry="2"/>
    <line x1="9" y1="9" x2="15" y2="9"/>
    <line x1="9" y1="15" x2="15" y2="15"/>
  </symbol>

  <symbol id="icon-user-initiated" viewBox="0 0 24 24" fill="none" stroke="currentColor" stroke-width="2" stroke-linecap="round" stroke-linejoin="round">
    <path d="M20 21v-2a4 4 0 0 0-4-4H8a4 4 0 0 0-4 4v2"/>
    <circle cx="12" cy="7" r="4"/>
    <circle cx="18" cy="9" r="1"/>
    <path d="M16 9h4"/>
  </symbol>

  <symbol id="icon-understanding" viewBox="0 0 24 24" fill="none" stroke="currentColor" stroke-width="2" stroke-linecap="round" stroke-linejoin="round">
    <circle cx="12" cy="12" r="10"/>
    <path d="M9.09 9a3 3 0 0 1 5.83 1c0 2-3 3-3 3"/>
    <line x1="12" y1="17" x2="12.01" y2="17"/>
  </symbol>

  <!-- Use Case Icons -->
  <symbol id="icon-explain" viewBox="0 0 24 24" fill="none" stroke="currentColor" stroke-width="2" stroke-linecap="round" stroke-linejoin="round">
    <circle cx="12" cy="12" r="10"/>
    <path d="M9.09 9a3 3 0 0 1 5.83 1c0 2-3 3-3 3"/>
    <line x1="12" y1="17" x2="12.01" y2="17"/>
  </symbol>

  <symbol id="icon-simplify" viewBox="0 0 24 24" fill="none" stroke="currentColor" stroke-width="2" stroke-linecap="round" stroke-linejoin="round">
    <path d="M14 2H6a2 2 0 0 0-2 2v16a2 2 0 0 0 2 2h12a2 2 0 0 0 2-2V8z"/>
    <polyline points="14 2 14 8 20 8"/>
    <line x1="8" y1="13" x2="16" y2="13"/>
    <line x1="8" y1="17" x2="12" y2="17"/>
  </symbol>

  <symbol id="icon-implications" viewBox="0 0 24 24" fill="none" stroke="currentColor" stroke-width="2" stroke-linecap="round" stroke-linejoin="round">
    <line x1="12" y1="2" x2="12" y2="22"/>
    <path d="M17 5H9.5a3.5 3.5 0 0 0 0 7h5a3.5 3.5 0 0 1 0 7H6"/>
  </symbol>

  <symbol id="icon-translate" viewBox="0 0 24 24" fill="none" stroke="currentColor" stroke-width="2" stroke-linecap="round" stroke-linejoin="round">
    <circle cx="12" cy="12" r="10"/>
    <line x1="2" y1="12" x2="22" y2="12"/>
    <path d="M12 2a15.3 15.3 0 0 1 4 10 15.3 15.3 0 0 1-4 10 15.3 15.3 0 0 1-4-10 15.3 15.3 0 0 1 4-10z"/>
  </symbol>

  <!-- Privacy Icons -->
  <symbol id="icon-select-only" viewBox="0 0 24 24" fill="none" stroke="currentColor" stroke-width="2" stroke-linecap="round" stroke-linejoin="round">
    <path d="M20 6L9 17l-5-5"/>
  </symbol>

  <symbol id="icon-no-scraping" viewBox="0 0 24 24" fill="none" stroke="currentColor" stroke-width="2" stroke-linecap="round" stroke-linejoin="round">
    <rect x="3" y="3" width="18" height="18" rx="2" ry="2"/>
    <line x1="9" y1="3" x2="9" y2="21"/>
    <line x1="3" y1="9" x2="21" y2="9"/>
    <circle cx="7" cy="7" r="1"/>
  </symbol>

  <symbol id="icon-no-tracking" viewBox="0 0 24 24" fill="none" stroke="currentColor" stroke-width="2" stroke-linecap="round" stroke-linejoin="round">
    <circle cx="12" cy="12" r="10"/>
    <line x1="12" y1="2" x2="12" y2="6"/>
    <line x1="12" y1="18" x2="12" y2="22"/>
    <line x1="4.93" y1="4.93" x2="7.76" y2="7.76"/>
    <line x1="16.24" y1="16.24" x2="19.07" y2="19.07"/>
    <line x1="2" y1="12" x2="6" y2="12"/>
    <line x1="18" y1="12" x2="22" y2="12"/>
    <line x1="4.93" y1="19.07" x2="7.76" y2="16.24"/>
    <line x1="16.24" y1="7.76" x2="19.07" y2="4.93"/>
  </symbol>

  <symbol id="icon-no-data" viewBox="0 0 24 24" fill="none" stroke="currentColor" stroke-width="2" stroke-linecap="round" stroke-linejoin="round">
    <path d="M18 6L6 18"/>
    <path d="M6 6l12 12"/>
  </symbol>

  <!-- Audience Icons -->
  <symbol id="icon-student" viewBox="0 0 24 24" fill="none" stroke="currentColor" stroke-width="2" stroke-linecap="round" stroke-linejoin="round">
    <path d="M4 19.5A2.5 2.5 0 0 1 6.5 17H20"/>
    <path d="M6.5 2H20v20H6.5A2.5 2.5 0 0 1 4 19.5v-15A2.5 2.5 0 0 1 6.5 2z"/>
    <path d="M8 7h8M8 11h8M8 15h4"/>
  </symbol>

  <symbol id="icon-developer" viewBox="0 0 24 24" fill="none" stroke="currentColor" stroke-width="2" stroke-linecap="round" stroke-linejoin="round">
    <polyline points="16 18 22 12 16 6"/>
    <polyline points="8 6 2 12 8 18"/>
  </symbol>

  <symbol id="icon-professional" viewBox="0 0 24 24" fill="none" stroke="currentColor" stroke-width="2" stroke-linecap="round" stroke-linejoin="round">
    <path d="M17 21v-2a4 4 0 0 0-4-4H5a4 4 0 0 0-4 4v2"/>
    <circle cx="9" cy="7" r="4"/>
    <path d="M23 21v-2a4 4 0 0 0-3-3.87"/>
    <path d="M16 3.13a4 4 0 0 1 0 7.75"/>
  </symbol>

  <symbol id="icon-anyone" viewBox="0 0 24 24" fill="none" stroke="currentColor" stroke-width="2" stroke-linecap="round" stroke-linejoin="round">
    <path d="M17 21v-2a4 4 0 0 0-4-4H5a4 4 0 0 0-4 4v2"/>
    <circle cx="9" cy="7" r="4"/>
    <path d="M23 21v-2a4 4 0 0 0-3-3.87"/>
    <path d="M16 3.13a4 4 0 0 1 0 7.75"/>
    <circle cx="18" cy="20" r="1"/>
  </symbol>

  <!-- Hero Illustration -->
  <symbol id="icon-hero" viewBox="0 0 200 150" fill="none">
    <rect x="10" y="10" width="180" height="130" rx="8" fill="#f3f4f6" stroke="#e5e7eb" stroke-width="2"/>
    <line x1="30" y1="40" x2="170" y2="40" stroke="#9ca3af" stroke-width="2" stroke-linecap="round"/>
    <line x1="30" y1="65" x2="150" y2="65" stroke="#9ca3af" stroke-width="2" stroke-linecap="round"/>
    <rect x="30" y="85" width="120" height="8" rx="4" fill="#2563eb" opacity="0.3"/>
    <rect x="30" y="100" width="80" height="8" rx="4" fill="#2563eb" opacity="0.3"/>
    <path d="M120 90 L140 100 L120 110 Z" fill="#2563eb"/>
    <rect x="40" y="115" width="140" height="20" rx="4" fill="#dcfce7" stroke="#86efac" stroke-width="1"/>
    <path d="M50 125 L60 132 L80 120" stroke="#16a34a" stroke-width="2" stroke-linecap="round" stroke-linejoin="round" fill="none"/>
    <line x1="90" y1="128" x2="170" y2="128" stroke="#16a34a" stroke-width="1.5" stroke-linecap="round"/>
  </symbol>
</svg>


